<?xml version="1.0" encoding="UTF-8"?>
<svg xmlns="http://www.w3.org/2000/svg" xmlns:xlink="http://www.w3.org/1999/xlink" width="2502" height="2502" viewBox="0 0 2502 2502">
<path fill-rule="evenodd" fill="rgb(87.109375%, 58.006287%, 26.708984%)" fill-opacity="1" d="M 949.882812 389.121094 C 688.625 553.878906 852.359375 860.640625 743.390625 1056.289062 C 656.0625 1213.078125 411.8125 1051.230469 228.546875 1229.851562 C 167.882812 1288.980469 145.839844 1363.78125 147.914062 1447.628906 C 150.671875 1558.996094 208.308594 1678.203125 297.289062 1744.765625 C 577.710938 1954.554688 856.621094 1590.300781 1032.390625 1629.34375 C 1133.601562 1651.824219 1192.738281 1885.871094 1264.378906 1954.117188 C 1564.371094 2239.902344 1813.289062 2190.347656 1961.660156 2050.773438 C 2091.128906 1928.972656 2172.328125 1585.40625 2068.921875 1380.679688 C 1964.738281 1174.410156 1820.988281 1254.960938 1746.511719 1110.488281 C 1683.070312 987.449219 1811.011719 775.058594 1772.960938 642.789062 C 1667.789062 277.230469 1070.191406 313.25 949.882812 389.121094 "/>
<path fill-rule="evenodd" fill="rgb(87.109375%, 58.006287%, 26.708984%)" fill-opacity="1" d="M 673.386719 641.730469 C 706.710938 765.96875 713.476562 894.25 629.390625 974.738281 C 539.867188 1060.421875 407.613281 1074.441406 330.25 1049.179688 C 291.402344 1036.5 264.871094 986.820312 260.753906 948.25 C 249.878906 846.320312 384.5 828.308594 443.023438 774.511719 C 484.828125 736.070312 519.789062 693.671875 544.113281 643.359375 C 571.390625 586.921875 640.183594 517.941406 673.386719 641.730469 "/>
<path fill-rule="evenodd" fill="rgb(87.109375%, 58.006287%, 26.708984%)" fill-opacity="1" d="M 1882.800781 950.089844 C 1818.421875 963.398438 1762.820312 1025.109375 1824.980469 1079.421875 C 1851.328125 1102.441406 1887.429688 1113.96875 1919.238281 1126.660156 C 1990.289062 1155.011719 2061.648438 1184.910156 2112.011719 1245.050781 C 2131.539062 1268.378906 2144.820312 1297.769531 2152.738281 1326.941406 C 2170.398438 1391.910156 2160.601562 1508.582031 2242.878906 1526.535156 C 2259.410156 1530.144531 2276 1530.113281 2290.429688 1520.496094 C 2380.980469 1460.171875 2356.328125 1272.410156 2329.941406 1184.96875 C 2316.140625 1139.25 2294.671875 1096.601562 2281.589844 1050.609375 C 2268.550781 1004.769531 2268.378906 955.289062 2252.089844 910.589844 C 2234.820312 863.21875 2194.179688 817.71875 2146.648438 801.03125 C 2109.859375 788.109375 2072.179688 790.648438 2036.300781 804.78125 C 1934.039062 845.058594 1970.921875 931.859375 1882.800781 950.089844 "/>
<path fill-rule="evenodd" fill="rgb(87.109375%, 58.006287%, 26.708984%)" fill-opacity="1" d="M 1078.570312 1860.246094 C 1107.179688 1817.265625 1077.589844 1777.777344 1064.230469 1753.648438 C 1025.191406 1683.128906 964.726562 1688.132812 906.941406 1747.847656 C 891.078125 1764.238281 874.371094 1780.183594 868.878906 1803.164062 C 852.019531 1873.675781 925.023438 1916.363281 984.410156 1913.496094 C 1007.058594 1912.402344 1046.230469 1908.835938 1078.570312 1860.246094 "/>
<path fill-rule="evenodd" fill="rgb(14.109802%, 14.109802%, 14.109802%)" fill-opacity="1" d="M 1656.371094 463.46875 C 1611.058594 438.140625 1551.390625 423.210938 1484.191406 418.78125 C 1402.789062 413.410156 1310.320312 423.429688 1219.070312 448.859375 C 1158.558594 465.71875 1104.289062 491.171875 1053.539062 522.101562 C 977.195312 568.640625 908.828125 627.609375 839.109375 688.449219 C 686.203125 821.871094 566.460938 946.320312 527.394531 1085.800781 C 489.742188 1220.238281 526.753906 1368.789062 681.550781 1552.851562 C 718.484375 1596.761719 758.074219 1640.925781 801.515625 1680.15625 C 830.648438 1706.464844 861.511719 1730.558594 894.460938 1750.878906 C 920.234375 1766.769531 947.007812 1780.304688 974.378906 1792.503906 C 1015.339844 1810.757812 1057.628906 1826.019531 1099.921875 1841.765625 C 1232.371094 1891.078125 1453.621094 1966.628906 1642.390625 1958.15625 C 1774.148438 1952.242188 1890.109375 1905.457031 1949.691406 1781.003906 C 1966.980469 1744.867188 1978.601562 1703.796875 1983.179688 1662.070312 C 1987.769531 1620.222656 1985.28125 1577.71875 1974.371094 1538.875 C 1963.378906 1499.691406 1946.898438 1464.128906 1927.019531 1430.839844 C 1846.738281 1296.398438 1710.550781 1199.289062 1657.890625 1048.640625 C 1633.839844 979.859375 1653.609375 905.980469 1680.589844 833.261719 C 1708.109375 759.070312 1743.171875 686.058594 1748.28125 620.78125 C 1753.03125 560.078125 1732.269531 505.910156 1656.371094 463.46875 Z M 1653.691406 468.269531 C 1727.128906 509.328125 1747.398438 561.628906 1742.800781 620.351562 C 1737.730469 685.191406 1702.78125 757.660156 1675.441406 831.351562 C 1648 905.320312 1628.238281 980.488281 1652.699219 1050.460938 C 1705.488281 1201.449219 1841.839844 1298.898438 1922.308594 1433.660156 C 1941.941406 1466.539062 1958.21875 1501.660156 1969.089844 1540.359375 C 1979.800781 1578.546875 1982.230469 1620.332031 1977.71875 1661.472656 C 1973.210938 1702.574219 1961.769531 1743.035156 1944.730469 1778.632812 C 1886.101562 1901.109375 1771.808594 1946.851562 1642.140625 1952.671875 C 1454.109375 1961.105469 1233.769531 1885.734375 1101.839844 1836.617188 C 1059.660156 1820.914062 1017.46875 1805.695312 976.613281 1787.488281 C 949.464844 1775.386719 922.90625 1761.96875 897.34375 1746.203125 C 864.675781 1726.058594 834.078125 1702.164062 805.195312 1676.078125 C 761.941406 1637.019531 722.527344 1593.039062 685.753906 1549.316406 C 532.5625 1367.171875 495.421875 1220.328125 532.683594 1087.28125 C 571.507812 948.671875 690.761719 825.179688 842.71875 692.589844 C 912.199219 631.960938 980.316406 573.171875 1056.398438 526.789062 C 1106.71875 496.109375 1160.53125 470.871094 1220.550781 454.148438 C 1311.160156 428.890625 1402.988281 418.929688 1483.828125 424.261719 C 1550.109375 428.628906 1609 443.28125 1653.691406 468.269531 "/>
<path fill-rule="evenodd" fill="rgb(14.109802%, 14.109802%, 14.109802%)" fill-opacity="1" d="M 669.058594 640.058594 C 594.460938 733.359375 472.289062 888.171875 390.144531 1044.988281 C 332.25 1155.511719 294.300781 1267.058594 306.433594 1358.898438 C 312.175781 1402.371094 328.277344 1438.941406 349.21875 1471.339844 C 383.394531 1524.226562 430.511719 1565.945312 466.117188 1608.578125 C 550.683594 1709.84375 711.054688 1801.355469 891.6875 1874.949219 C 1148.78125 1979.699219 1446.871094 2048.257812 1625.03125 2057.539062 C 1735.550781 2063.300781 1835.621094 2025.089844 1915.199219 1967.351562 C 2009.03125 1899.277344 2074.328125 1804.046875 2094.800781 1721.878906 C 2145.679688 1517.621094 2123.289062 1373.589844 2070.621094 1263.558594 C 1991.089844 1097.421875 1842.160156 1008.980469 1772.03125 907.46875 C 1670.710938 760.808594 1585.511719 589.601562 1458.949219 483.109375 C 1373.660156 411.351562 1269.671875 368.839844 1129.5 382.671875 C 1061.71875 389.359375 970.363281 404.570312 871.585938 461.371094 C 805.777344 499.199219 736.667969 555.5 669.058594 640.058594 Z M 673.414062 643.539062 C 740.503906 559.628906 809.0625 503.75 874.363281 466.199219 C 972.285156 409.898438 1062.859375 394.851562 1130.050781 388.21875 C 1268.449219 374.558594 1371.140625 416.519531 1455.359375 487.378906 C 1581.558594 593.570312 1666.410156 764.390625 1767.449219 910.640625 C 1837.441406 1011.960938 1986.210938 1100.140625 2065.589844 1265.96875 C 2117.828125 1375.101562 2139.859375 1517.949219 2089.390625 1720.53125 C 2069.179688 1801.667969 2004.578125 1895.617188 1911.921875 1962.839844 C 1833.320312 2019.871094 1734.488281 2057.660156 1625.320312 2051.972656 C 1447.601562 2042.710938 1150.25 1974.28125 893.792969 1869.785156 C 714.125 1796.585938 554.507812 1705.726562 470.394531 1605.003906 C 434.925781 1562.53125 387.949219 1521 353.902344 1468.320312 C 333.386719 1436.570312 317.589844 1400.75 311.960938 1358.160156 C 299.953125 1267.269531 337.789062 1156.949219 395.082031 1047.578125 C 477.050781 891.101562 598.980469 736.640625 673.414062 643.539062 "/>
</svg>
